<svg id="visual" viewBox="0 0 900 600" width="900" height="600" xmlns="http://www.w3.org/2000/svg" xmlns:xlink="http://www.w3.org/1999/xlink" version="1.1"><rect x="0" y="0" width="900" height="600" fill="#04052e"></rect><path d="M0 360L21.5 369.8C43 379.7 86 399.3 128.8 405.2C171.7 411 214.3 403 257.2 403.8C300 404.7 343 414.3 385.8 421C428.7 427.7 471.3 431.3 514.2 435.3C557 439.3 600 443.7 642.8 436.3C685.7 429 728.3 410 771.2 398.8C814 387.7 857 384.3 878.5 382.7L900 381L900 601L878.5 601C857 601 814 601 771.2 601C728.3 601 685.7 601 642.8 601C600 601 557 601 514.2 601C471.3 601 428.7 601 385.8 601C343 601 300 601 257.2 601C214.3 601 171.7 601 128.8 601C86 601 43 601 21.5 601L0 601Z" fill="#fdca40"></path><path d="M0 422L21.5 429.5C43 437 86 452 128.8 465.3C171.7 478.7 214.3 490.3 257.2 496C300 501.7 343 501.3 385.8 492C428.7 482.7 471.3 464.3 514.2 452C557 439.7 600 433.3 642.8 430.7C685.7 428 728.3 429 771.2 435.8C814 442.7 857 455.3 878.5 461.7L900 468L900 601L878.5 601C857 601 814 601 771.2 601C728.3 601 685.7 601 642.8 601C600 601 557 601 514.2 601C471.3 601 428.7 601 385.8 601C343 601 300 601 257.2 601C214.3 601 171.7 601 128.8 601C86 601 43 601 21.5 601L0 601Z" fill="#e68534"></path><path d="M0 546L21.5 540.5C43 535 86 524 128.8 516.8C171.7 509.7 214.3 506.3 257.2 501.8C300 497.3 343 491.7 385.8 495.3C428.7 499 471.3 512 514.2 518.7C557 525.3 600 525.7 642.8 528.2C685.7 530.7 728.3 535.3 771.2 529.7C814 524 857 508 878.5 500L900 492L900 601L878.5 601C857 601 814 601 771.2 601C728.3 601 685.7 601 642.8 601C600 601 557 601 514.2 601C471.3 601 428.7 601 385.8 601C343 601 300 601 257.2 601C214.3 601 171.7 601 128.8 601C86 601 43 601 21.5 601L0 601Z" fill="#bc4535"></path><path d="M0 555L21.5 562.3C43 569.7 86 584.3 128.8 581.3C171.7 578.3 214.3 557.7 257.2 541.7C300 525.7 343 514.3 385.8 521.5C428.7 528.7 471.3 554.3 514.2 557.8C557 561.3 600 542.7 642.8 542.2C685.7 541.7 728.3 559.3 771.2 567.5C814 575.7 857 574.3 878.5 573.7L900 573L900 601L878.5 601C857 601 814 601 771.2 601C728.3 601 685.7 601 642.8 601C600 601 557 601 514.2 601C471.3 601 428.7 601 385.8 601C343 601 300 601 257.2 601C214.3 601 171.7 601 128.8 601C86 601 43 601 21.5 601L0 601Z" fill="#840032"></path></svg>