<svg class=" " viewBox="0 0 1600 800"><path d="M1156.59,4C1156.59,4,1151.301,19.34,1154.678,24.242C1159.209,30.82,1176.609,33.308,1189.95,34.013C1206.98,34.914,1231.664,30.012,1248.784,24.242C1263.383,19.322,1287.144,4,1287.144,4" stroke="#3e0646" stroke-width="2" fill="none" stroke-linecap="round" stroke-miterlimit="4"></path><path d="M221.043,4C221.043,4,224.181,23.937,228.819,32.323C233.524,40.829,239.655,48.62,249.246,54.587C262.608,62.898,289.488,70.407,305.528,71.051C317.296,71.524,327.476,68.715,336.438,64.646C344.691,60.899,352.937,55.342,357.784,48.485C362.509,41.801,365.236,31.994,365.492,24.242C365.724,17.225,360.499,4,360.499,4" stroke="#3e0646" stroke-width="2" fill="none" stroke-linecap="round" stroke-miterlimit="4"></path><path d="M1383.851,4C1383.851,4,1358.284,23.942,1342.984,32.323C1325.786,41.744,1305.591,49.666,1285.03,56.566C1262.826,64.016,1238.007,70.629,1214.07,74.784C1190.231,78.922,1164.302,81.766,1141.709,81.49C1121.757,81.246,1101.654,79.841,1085.427,74.884C1071.799,70.721,1056.554,64.97,1049.903,56.566C1044.645,49.921,1042.49,40.417,1043.862,32.323C1045.458,22.9,1062.416,4,1062.416,4" stroke="#3e0646" stroke-width="2" fill="none" stroke-linecap="round" stroke-miterlimit="4"></path><path d="M150.998,4C150.998,4,155.854,40.884,163.198,56.566C170.315,71.762,180.567,85.645,193.781,96.97C208.515,109.597,229.46,120.278,249.246,126.858C269.348,133.542,292.126,136.42,313.568,136.434C335.007,136.449,358.344,133.871,377.889,126.947C396.484,120.359,416.891,109.91,428.527,96.97C438.636,85.727,445.639,71.172,446.98,56.566C448.462,40.433,433.826,4,433.826,4" stroke="#3e0646" stroke-width="2" fill="none" stroke-linecap="round" stroke-miterlimit="4"></path><path d="M1450.396,4C1450.396,4,1418.585,29.026,1397.402,40.404C1369.961,55.142,1330.333,70.187,1297.366,80.808C1266.591,90.723,1236.421,98.102,1206.03,103.11C1176.498,107.975,1146.365,110.853,1117.588,110.833C1090.148,110.813,1061.183,109.521,1037.186,103.695C1016.406,98.651,992.334,92.2,981.155,80.808C972.695,72.188,967.291,59.736,968.656,48.485C970.364,34.403,999.775,4,999.775,4" stroke="#3e0646" stroke-width="2" fill="none" stroke-linecap="round" stroke-miterlimit="4"></path><path d="M101.756,4C101.756,4,106.698,57.522,116.666,80.808C126.507,103.798,142.479,126.699,160.804,143.001C178.772,158.985,200.692,170.003,225.126,178.181C253.305,187.612,288.804,192.315,321.608,192.315C355.752,192.316,399.881,184.852,426.131,177.005C443.137,171.922,454.117,165.984,466.332,158.301C478.165,150.858,490.142,141.492,498.492,131.893C505.753,123.547,511.552,114.816,514.897,105.051C518.299,95.121,520.393,85.217,518.515,72.727C515.666,53.77,488.657,4,488.657,4" stroke="#3e0646" stroke-width="2" fill="none" stroke-linecap="round" stroke-miterlimit="4"></path><path d="M965.727,796C965.727,796,961.412,781.535,956.498,775.758C950.921,769.199,943.367,763.912,932.663,759.832C915.574,753.317,888.925,750.405,860.302,749.68C818.832,748.631,756.763,755.277,707.538,763.277C660.423,770.935,570.854,795.78,570.854,795.78" stroke="#3e0646" stroke-width="2" fill="none" stroke-linecap="round" stroke-miterlimit="4"></path><path d="M1512.333,4C1512.333,4,1461.705,39.335,1431.156,54.446C1395.665,72,1350.455,87.959,1310.553,100.204C1272.764,111.801,1235.745,121.06,1197.99,126.905C1160.697,132.678,1122.933,135.631,1085.427,135.281C1047.892,134.931,1004.87,132.834,972.864,124.792C947.404,118.395,918.793,106.998,906.955,96.97C900.833,91.784,898.246,87.031,896.718,80.808C894.995,73.79,894.976,65.494,898.737,56.566C905.098,41.467,944.316,4,944.316,4" stroke="#3e0646" stroke-width="2" fill="none" stroke-linecap="round" stroke-miterlimit="4"></path><path d="M59.15,4C59.15,4,66.844,79.005,75.349,113.131C83.214,144.686,96.264,179.146,106.91,202.02C114.097,217.463,117.463,229.622,128.643,239.111C141.884,250.349,161.588,255.677,184.925,260.73C220.093,268.345,280.991,269.086,321.608,268.905C354.29,268.76,383.109,267.311,410.05,262.827C433.398,258.942,453.4,254.054,474.372,245.634C496.451,236.77,518.449,224.732,539.051,210.101C561.104,194.439,588.656,170.957,601.916,153.535C610.583,142.148,616.328,131.465,618.054,121.212C619.474,112.778,619.095,106.923,614.898,96.97C605.658,75.057,541.451,4,541.451,4" stroke="#3e0646" stroke-width="2" fill="none" stroke-linecap="round" stroke-miterlimit="4"></path><path d="M1084.672,796C1084.672,796,1092.905,758.536,1090.39,743.434C1088.324,731.026,1083.401,719.607,1075.237,711.111C1066.291,701.803,1051.566,695.668,1037.186,691.392C1020.665,686.479,1002.889,685.845,980.905,685.75C949.826,685.616,909.946,690.389,868.342,696.051C815.874,703.19,743.562,716.336,691.457,728.1C649.488,737.575,614.266,746.749,578.894,758.628C546.147,769.625,486.178,796,486.178,796" stroke="#3e0646" stroke-width="2" fill="none" stroke-linecap="round" stroke-miterlimit="4"></path><path d="M1579.348,4C1579.348,4,1510.723,46.223,1470.015,64.646C1422.637,86.089,1360.42,107.248,1310.553,121.692C1267.953,134.03,1231.647,142.641,1189.95,148.698C1146.048,155.076,1101.007,158.219,1053.266,158.037C1000.697,157.837,927.792,152.766,887.629,145.455C863.977,141.149,846.471,136.015,832.332,129.293C822.39,124.566,813.941,119.345,808.874,113.131C804.897,108.254,802.178,102.933,802.029,96.97C801.849,89.737,804.603,81.909,810.902,72.727C823.567,54.268,889.419,4,889.419,4" stroke="#3e0646" stroke-width="2" fill="none" stroke-linecap="round" stroke-miterlimit="4"></path><path d="M19.436,4C19.436,4,27.589,96.656,23.46,129.293C20.723,150.925,8.04,182.16,8.04,182.16" stroke="#3e0646" stroke-width="2" fill="none" stroke-linecap="round" stroke-miterlimit="4"></path><path d="M4,384.403C4,384.403,124.501,378.272,184.925,383.153C246.447,388.123,323.995,411.254,369.849,414.539C396.705,416.463,412.882,418.041,434.171,412.926C457.416,407.341,477.177,397.412,503.364,379.798C546.764,350.606,615.563,269.159,659.296,238.075C686.64,218.64,706.126,207.546,731.658,198.717C757.062,189.933,777.15,188.462,812.06,185.108C875.988,178.967,1010.03,183.669,1085.427,178.584C1138.897,174.978,1175.626,172.176,1222.111,163.377C1271.97,153.939,1319.701,139.834,1374.874,122.189C1442.243,100.643,1596,40.038,1596,40.038" stroke="#3e0646" stroke-width="2" fill="none" stroke-linecap="round" stroke-miterlimit="4"></path><path d="M826.979,4C826.979,4,784.628,25.041,763.819,31.238C744.856,36.885,725.58,40.941,707.538,40.998C690.842,41.049,675.641,38.304,659.296,32.94C640.589,26.802,602.134,4,602.134,4" stroke="#3e0646" stroke-width="2" fill="none" stroke-linecap="round" stroke-miterlimit="4"></path><path d="M1171.186,796C1171.186,796,1177.123,741.481,1172.939,719.192C1169.48,700.766,1163.555,683.108,1152.786,670.707C1142.251,658.576,1126.509,650.837,1109.548,645.111C1089.123,638.215,1065.777,636.878,1037.186,636.627C995.684,636.261,939.126,643.774,884.422,651.814C819.988,661.285,736.234,676.921,675.377,692.62C626.895,705.127,589.053,717.256,546.734,734.135C503.26,751.474,418.09,795.78,418.09,795.78" stroke="#3e0646" stroke-width="2" fill="none" stroke-linecap="round" stroke-miterlimit="4"></path><path d="M4,187.463Z" stroke="#3e0646" stroke-width="2" fill="none" stroke-linecap="round" stroke-miterlimit="4"></path><path d="M4,420.797C4,420.797,109.09,426.598,168.844,436.851C242.036,449.409,350.866,489.205,410.05,496.588C443.716,500.788,466.618,502.575,490.452,497.025C511.534,492.116,525.291,485.327,546.734,468.93C587.525,437.735,662.532,333.139,698.225,298.99C715.529,282.435,724.824,275.011,739.698,265.187C754.709,255.273,768.226,247.228,787.94,239.856C815.618,229.506,849.859,221.88,892.462,215.143C957.471,204.863,1076.499,202.35,1141.709,194.786C1184.104,189.869,1201.644,189.084,1246.231,179.047C1329.13,160.386,1596,73.38,1596,73.38" stroke="#3e0646" stroke-width="2" fill="none" stroke-linecap="round" stroke-miterlimit="4"></path><path d="M1237.731,796C1237.731,796,1235.725,715.617,1229.387,686.869C1225.029,667.099,1221.57,651.515,1211.267,638.384C1200.648,624.852,1184.108,614.296,1165.829,607.443C1143.644,599.125,1118.034,598.292,1085.427,597.782C1034.995,596.995,961.249,606.432,892.462,614.875C812.704,624.664,699.61,637.827,635.176,655.315C594.527,666.348,575.504,675.957,538.693,693.199C485.846,717.955,351.4,796,351.4,796" stroke="#3e0646" stroke-width="2" fill="none" stroke-linecap="round" stroke-miterlimit="4"></path><path d="M4,450.223C4,450.223,87.028,459.359,128.643,467.872C171.453,476.629,211.363,488.101,257.286,502.492C311.704,519.544,390.425,544.413,433.357,565.657C460.424,579.05,488.083,590.871,495.768,606.061C500.84,616.085,498.154,627.242,493.843,638.384C487.865,653.838,471.251,671.143,454.735,686.869C434.226,706.396,405.086,725.798,377.112,743.434C347.092,762.36,279.798,796,279.798,796" stroke="#3e0646" stroke-width="2" fill="none" stroke-linecap="round" stroke-miterlimit="4"></path><path d="M1293.559,796C1293.559,796,1284.107,656.791,1275.629,622.222C1271.845,606.798,1268.439,598.376,1262.785,589.899C1258.172,582.982,1253.209,578.167,1246.203,573.737C1237.68,568.348,1226.496,564.459,1214.07,561.821C1198.131,558.436,1184.228,557.961,1157.789,558.254C1094.536,558.954,922.312,583.867,836.181,585.797C778.484,587.091,724.352,586.974,691.457,579.917C673.467,576.057,660.892,572.28,651.256,563.763C642.623,556.134,636.137,546.566,634.422,533.333C631.638,511.848,646.224,470.068,656.884,444.444C665.928,422.706,677.39,406.111,690.867,387.879C705.335,368.306,723.751,348.286,741.703,331.313C758.874,315.078,777.022,299.783,795.98,287.774C813.962,276.383,830.103,268.235,852.261,260.358C881.276,250.044,912.77,243.746,956.784,235.909C1030.332,222.814,1152.507,219.968,1254.271,199.246C1365.096,176.68,1596,101.305,1596,101.305" stroke="#3e0646" stroke-width="2" fill="none" stroke-linecap="round" stroke-miterlimit="4"></path><path d="M4,477.337C4,477.337,87.727,490.521,128.643,500.664C169.474,510.784,211.964,523.736,249.246,538.096C283.063,551.121,318.752,565.496,343.493,581.818C362.365,594.269,380.863,607.122,388.457,622.222C394.679,634.594,396.157,649.32,392.233,662.626C387.396,679.033,370.502,696.203,354.085,711.111C334.28,729.097,305.573,745.656,278.51,759.596C250.248,774.154,187.6,796,187.6,796" stroke="#3e0646" stroke-width="2" fill="none" stroke-linecap="round" stroke-miterlimit="4"></path><path d="M1345.257,796C1345.257,796,1331.313,756.087,1328.529,735.354C1325.708,714.336,1326.442,692.777,1328.675,670.707C1331.066,647.063,1335.029,622.309,1343.371,597.98C1352.57,571.149,1379.498,534.126,1383.531,517.172C1385.238,509.997,1385.296,505.507,1383.627,501.01C1382.112,496.927,1379.273,493.808,1374.874,490.961C1367.889,486.44,1354.165,482.782,1342.714,481.201C1330.188,479.471,1321.663,479.872,1302.513,482.016C1252.807,487.58,1107.17,525.799,1037.186,536.538C991.954,543.479,959.928,546.36,924.623,548.042C893.41,549.529,863.188,550.338,836.181,547.455C812.902,544.97,789.085,541.19,771.859,534.01C758.667,528.511,747.586,522.257,739.698,512.766C731.757,503.209,726.114,489.35,724.49,476.768C722.831,463.908,725.71,450.015,730.311,436.364C735.675,420.451,746.415,402.868,757.251,387.879C768.249,372.665,781.724,358.774,795.98,345.862C810.637,332.585,826.958,319.977,844.221,309.5C861.76,298.855,878.741,290.449,900.503,282.655C928.076,272.779,957.076,266.343,997.677,258.586C1063.989,245.917,1178.41,241.36,1262.312,222.708C1341.159,205.18,1425.667,169.156,1487.437,152.393C1529.895,140.87,1596,127.287,1596,127.287" stroke="#3e0646" stroke-width="2" fill="none" stroke-linecap="round" stroke-miterlimit="4"></path><path d="M4,503.923C4,503.923,92.367,521.095,132.905,533.333C170.557,544.701,209.823,558.354,239.57,573.737C263.263,585.99,286.248,598.621,299.596,614.141C310.087,626.341,317.704,642.618,318.726,654.545C319.492,663.494,315.924,671.089,311.982,678.788C307.602,687.341,302.265,694.487,292.567,703.03C275.792,717.808,241.635,738.999,213.281,751.515C184.387,764.27,153.594,772.355,120.603,778.424C84.279,785.107,4,787.924,4,787.924" stroke="#3e0646" stroke-width="2" fill="none" stroke-linecap="round" stroke-miterlimit="4"></path><path d="M1397.205,796C1397.205,796,1383.717,772.936,1379.415,759.596C1374.675,744.898,1371.56,727.304,1371.123,711.111C1370.688,694.981,1372.963,677.823,1376.744,662.626C1380.309,648.301,1383.784,636.022,1392.523,622.222C1404.368,603.518,1422.977,582.69,1447.236,564.284C1480.884,538.754,1563.823,505.479,1582.932,492.929C1588.471,489.292,1592.349,488.337,1592.965,484.848C1593.711,480.626,1589.856,474.301,1583.213,468.687C1565.282,453.535,1497.222,428.978,1455.276,418.282C1417.179,408.567,1376.027,403.118,1342.714,404.247C1315.859,405.158,1300.038,409.781,1270.352,418.299C1219.611,432.859,1121.818,480.993,1069.347,495.582C1037.037,504.565,1015.846,507,988.945,509.824C962.243,512.627,932.893,514.079,908.543,512.549C888.046,511.26,868.095,508.563,852.261,503.5C839.699,499.483,828.688,494.979,820.101,487.584C811.879,480.506,804.233,470.538,801.3,460.606C798.391,450.756,799.695,438.764,802.41,428.283C805.287,417.179,811.526,406.455,818.935,395.96C827.503,383.823,837.07,372.463,852.261,360.669C875.184,342.872,915.825,319.904,948.918,307.071C980.237,294.925,1006.185,291.347,1045.226,284.158C1104.353,273.272,1196.841,272.181,1270.352,254.589C1344.472,236.85,1427.647,195.201,1488.042,177.778C1529.863,165.713,1596,153.35,1596,153.35" stroke="#3e0646" stroke-width="2" fill="none" stroke-linecap="round" stroke-miterlimit="4"></path><path d="M4,531.49C4,531.49,73.83,547.187,105.134,557.576C133.433,566.967,162.136,577.662,184.129,589.899C201.797,599.73,218.512,610.027,228.731,622.222C236.983,632.07,244.345,643.158,244.393,654.545C244.447,667.251,235.443,683.425,225.235,694.949C213.362,708.353,193.622,718.461,174.105,727.273C151.538,737.461,123.752,744.753,96.482,749.964C67.257,755.549,4,758.612,4,758.612" stroke="#3e0646" stroke-width="2" fill="none" stroke-linecap="round" stroke-miterlimit="4"></path><path d="M1454.399,796C1454.399,796,1437.104,775.921,1431.156,764.471C1425.203,753.013,1420.78,740.105,1418.702,727.273C1416.593,714.25,1416.495,700.145,1418.781,686.869C1421.135,673.197,1426.308,658.684,1433.032,646.465C1439.622,634.491,1448.404,623.696,1458.488,614.141C1469.061,604.124,1481.867,595.549,1495.477,588.114C1510.083,580.135,1527.063,573.406,1543.719,568.466C1560.557,563.471,1596,558.415,1596,558.415" stroke="#3e0646" stroke-width="2" fill="none" stroke-linecap="round" stroke-miterlimit="4"></path><path d="M1596,400.397C1596,400.397,1541.17,388.151,1511.558,378.985C1477.561,368.462,1427.977,350.679,1403.776,339.394C1390.74,333.316,1381.901,330.086,1374.874,322.823C1368.551,316.287,1361.587,307.321,1362.237,298.99C1363.032,288.795,1375.219,277.046,1386.467,266.667C1401.863,252.458,1428.184,237.594,1450.481,226.263C1472.578,215.033,1495.68,206.226,1519.598,198.868C1544.14,191.318,1596,181.82,1596,181.82" stroke="#3e0646" stroke-width="2" fill="none" stroke-linecap="round" stroke-miterlimit="4"></path><path d="M905.33,395.96C912.66,387.121,921.559,379.441,934.749,371.717C955.311,359.678,989.989,345.042,1021.106,338.205C1055.097,330.736,1106.059,328.87,1131.426,331.313C1145.097,332.63,1154.735,334.535,1162.5,339.394C1168.818,343.348,1175.654,348.972,1176.305,355.556C1177.164,364.246,1166.73,377.869,1158.233,387.879C1148.178,399.724,1134.968,409.961,1117.68,420.202C1093.129,434.745,1049.553,453.319,1021.216,460.606C1000.349,465.972,982.239,466.958,964.824,466.648C949.733,466.379,934.562,465.004,922.667,460.606C912.66,456.906,902.267,451.678,897.225,444.444C892.651,437.883,890.839,428.074,891.99,420.202C893.206,411.888,899.086,403.49,905.33,395.96" stroke="#3e0646" stroke-width="2" fill="none" stroke-linecap="round" stroke-miterlimit="4"></path><path d="M4,562.635C4,562.635,95.144,591.599,120.751,606.061C135.068,614.146,144.294,621.276,151.221,630.303C156.928,637.741,161.607,646.432,161.764,654.545C161.92,662.594,158.082,671.479,152.319,678.788C144.952,688.13,130.777,696.509,117.404,703.03C102.244,710.422,83.502,715.238,65.234,719.192C45.815,723.395,4,726.94,4,726.94" stroke="#3e0646" stroke-width="2" fill="none" stroke-linecap="round" stroke-miterlimit="4"></path><path d="M1596,353.583C1596,353.583,1537.197,333.078,1520.893,323.232C1511.833,317.761,1506.549,313.712,1501.802,307.071C1496.958,300.295,1491.982,290.836,1492.317,282.828C1492.658,274.672,1498.696,265.339,1504.223,258.586C1509.701,251.895,1515.627,247.661,1525.247,242.424C1541.435,233.611,1596,217.261,1596,217.261" stroke="#3e0646" stroke-width="2" fill="none" stroke-linecap="round" stroke-miterlimit="4"></path><path d="M1530.356,796C1530.356,796,1509.399,784.177,1500.645,775.758C1491.386,766.853,1482.043,754.768,1476.723,743.434C1471.883,733.123,1469.301,721.936,1468.793,711.111C1468.289,700.386,1469.844,689.204,1473.571,678.788C1477.574,667.6,1485.069,655.654,1492.966,646.465C1500.53,637.664,1507.629,631.061,1519.598,624.424C1537.864,614.295,1596,599.001,1596,599.001" stroke="#3e0646" stroke-width="2" fill="none" stroke-linecap="round" stroke-miterlimit="4"></path><path d="M4,607.251C4,607.251,33.595,622.265,41.391,630.303C46.469,635.54,50.558,640.739,50.683,646.465C50.821,652.794,46.151,661.164,40.201,666.692C32.379,673.959,4,682.193,4,682.193" stroke="#3e0646" stroke-width="2" fill="none" stroke-linecap="round" stroke-miterlimit="4"></path><path d="M1596,766.285C1596,766.285,1563.207,754.43,1553.384,743.434C1544.067,733.006,1536.776,715.647,1537.261,703.03C1537.702,691.551,1544.619,679.598,1553.134,670.707C1563.051,660.353,1596,647.309,1596,647.309" stroke="#3e0646" stroke-width="2" fill="none" stroke-linecap="round" stroke-miterlimit="4"></path></svg>